# xmcd
#
# Track frame offsets: 
#        150
#        23285
#        44225
#        65712
#        85332
#        110785
#        129910
#        146715
#        171665
#        195895
#        215870
#        238195
#
# Disc length: 3443 seconds
#
# Revision: 0
# Processed by: cddbd v1.5.2PL0 Copyright (c) Steve Scherf et al.
# Submitted via: ExactAudioCopy v1.0b3
#
DISCID=b90d710c
DTITLE=Various Artist - Tam Su Nang Buram
DYEAR=1989
DGENRE=
TTITLE0=Thanh Tuyen - Ba thang ta tu
TTITLE1=Giao Linh - Nguoi tinh khong den
TTITLE2=Thanh Phong - Dap vo cay dan
TTITLE3=Thanh Phong, Thanh Tuyen - Duong tinh doi nga
TTITLE4=Giao Linh - Nuoc cuon hoa troi
TTITLE5=Thanh Phong, Mai Ngoc Khanh - Loi ve xom nho
TTITLE6=Giao Linh - Tam su nang Buram
TTITLE7=Thanh Phong, Thanh Tuyen - Can nha mau tim
TTITLE8=Thanh Phong - Gio cuon chieu hom
TTITLE9=Thanh Tuyen - Nguoi lu khach
TTITLE10=Thanh Phong, Giao Linh - Hai nam roi
TTITLE11=Giao Linh - Dem nho nguoi tinh
EXTD=
EXTT0=
EXTT1=
EXTT2=
EXTT3=
EXTT4=
EXTT5=
EXTT6=
EXTT7=
EXTT8=
EXTT9=
EXTT10=
EXTT11=
PLAYORDER=
